# xmcd
#
# Track frame offsets: 
#        183
#        15510
#        31595
#        51055
#        86373
#        103158
#        125480
#        145105
#        163893
#        175033
#        218300
#        238605
#
# Disc length: 3479 seconds
#
# Revision: 1
# Processed by: cddbd v1.5.2PL0 Copyright (c) Steve Scherf et al.
# Submitted via: ExactAudioCopyFreeDBPlugin 1.0
#
DISCID=8d0d950c
DTITLE=Roland - Hole In Your Soul
DYEAR=1990
DGENRE=Rock
TTITLE0=Romeo Refugee
TTITLE1=Eyes Black As Coal
TTITLE2=The Love You Save
TTITLE3=Fish For The Polar Bear
TTITLE4=Sweet Tooth For Your Love
TTITLE5=17 Years In A Phonebooth
TTITLE6=One More Time With Feeling
TTITLE7=Hole In Your Soul
TTITLE8=No More Forever
TTITLE9=Love And Devotion
TTITLE10=Rhythm Of The Rain
TTITLE11=Why Geronimo Why
EXTD=
EXTT0=
EXTT1=
EXTT2=
EXTT3=
EXTT4=
EXTT5=
EXTT6=
EXTT7=
EXTT8=
EXTT9=
EXTT10=
EXTT11=
PLAYORDER=
